<svg width="18" height="17" viewBox="0 0 18 17" fill="none" xmlns="http://www.w3.org/2000/svg">
<rect width="18" height="17" rx="6" fill="#FFF3FF"/>
<path d="M9.16 7.94C9.84667 8.00667 10.37 8.22 10.73 8.58C11.09 8.93333 11.27 9.38667 11.27 9.94C11.27 10.34 11.17 10.7033 10.97 11.03C10.77 11.35 10.47 11.6067 10.07 11.8C9.67667 11.9867 9.19333 12.08 8.62 12.08C8.12 12.08 7.64 12.0067 7.18 11.86C6.72 11.7067 6.34333 11.4967 6.05 11.23L6.51 10.44C6.75 10.6667 7.05667 10.85 7.43 10.99C7.80333 11.1233 8.2 11.19 8.62 11.19C9.14 11.19 9.54333 11.08 9.83 10.86C10.1233 10.64 10.27 10.3367 10.27 9.95C10.27 9.56333 10.1267 9.26333 9.84 9.05C9.55333 8.83667 9.12 8.73 8.54 8.73H7.98V8.03L9.74 5.87H6.37V5H10.99V5.68L9.16 7.94Z" fill="#C949CA"/>
</svg>
